<svg width="10" height="16" viewBox="0 0 10 16" xmlns="http://www.w3.org/2000/svg">
<path fill-rule="evenodd" clip-rule="evenodd" d="M4.18184 11.2174C2.90911 11.1305 1.7273 10.7827 0.727295 10C0.636386 9.91309 0.454568 9.82613 0.363659 9.73918C-0.0908868 9.3044 -0.0908868 8.86961 0.27275 8.43483C0.545477 8.00005 1.09093 7.91309 1.54548 8.17396C1.63639 8.17396 1.7273 8.26092 1.8182 8.34787C3.72729 9.56527 6.27275 9.56527 8.09093 8.34787C8.27275 8.17396 8.45457 8.087 8.72729 8.087C9.18184 8.00005 9.54548 8.17396 9.8182 8.52179C10.0909 8.95657 10.0909 9.39135 9.72729 9.73918C9.18184 10.2609 8.54548 10.6087 7.90911 10.8696C7.27275 11.1305 6.54548 11.2174 5.8182 11.3044C5.90911 11.3914 6.00002 11.4783 6.00002 11.5653C7.00002 12.5218 7.90911 13.3914 8.90911 14.3479C9.27275 14.6957 9.27275 15.0435 9.09093 15.3914C8.90911 15.8261 8.45457 16.087 8.00002 16C7.72729 16 7.54548 15.8261 7.36366 15.6522C6.63639 14.9566 5.90911 14.2609 5.18184 13.5653C5.00002 13.3914 4.90911 13.3914 4.72729 13.5653C4.00002 14.2609 3.27275 14.9566 2.54548 15.7392C2.18184 16.087 1.8182 16.087 1.45457 15.9131C1.00002 15.7392 0.818204 15.3044 0.818204 14.8696C0.818204 14.6087 1.00002 14.3479 1.18184 14.174C2.09093 13.3044 3.09093 12.3479 4.00002 11.4783C4.00002 11.3914 4.09093 11.3914 4.18184 11.2174Z"/>
<path fill-rule="evenodd" clip-rule="evenodd" d="M4.99999 8.08696C2.72727 8.08696 0.818176 6.26087 0.818176 4C0.818176 1.82609 2.72727 0 4.99999 0C7.36363 0 9.18181 1.82609 9.18181 4.08696C9.27272 6.34783 7.36363 8.08696 4.99999 8.08696ZM7.0909 4C7.0909 2.86957 6.18181 2 4.99999 2C3.81818 2 2.90909 2.86957 2.90909 4C2.90909 5.13043 3.81818 6 4.99999 6C6.18181 6 7.0909 5.13043 7.0909 4Z"/>
</svg>
