<svg width="16" height="13" viewBox="0 0 16 13" xmlns="http://www.w3.org/2000/svg">
<path d="M0.99628 5.65687L10.5429 1.77899C11.5243 1.33832 14.647 0.104455 14.647 0.104455C14.647 0.104455 16.1638 -0.424346 15.9853 0.897656C15.9853 1.42646 15.6285 3.45353 15.2716 5.56873L14.2009 11.9143C14.2009 11.9143 14.1117 12.8838 13.3979 12.9719C12.6842 13.1482 11.5243 12.4431 11.3459 12.2669C11.1674 12.1787 8.22315 10.3279 7.24172 9.44661C6.97406 9.18221 6.61718 8.74154 7.24172 8.1246C8.75847 6.8026 10.4537 5.12806 11.5243 4.07046C12.0596 3.54166 12.5057 2.48406 10.4537 3.80606L4.83277 7.68394C4.83277 7.68394 4.20822 8.1246 2.95913 7.68394C1.71005 7.24327 0.282515 6.8026 0.282515 6.8026C0.282515 6.8026 -0.698912 6.2738 0.99628 5.65687Z"/>
</svg>
