<svg width="16" height="14" viewBox="0 0 16 14" xmlns="http://www.w3.org/2000/svg">
<path d="M9.88622 3.20007H0V13.8667H2.75166V10.3964H8.02425L10.4299 13.8667H13.5111L10.8583 10.3805C11.6822 10.2526 12.2753 9.94873 12.6379 9.46894C13.0003 8.98923 13.1816 8.22158 13.1816 7.19808V6.39851C13.1816 5.79078 13.1157 5.31104 13.0003 4.94318C12.885 4.57538 12.6873 4.25554 12.4072 3.96769C12.1106 3.69582 11.781 3.50392 11.3856 3.37598C10.9902 3.26404 10.4958 3.20007 9.88622 3.20007ZM9.44135 8.04566H2.75166V5.55088H9.44135C9.8203 5.55088 10.0839 5.61486 10.2158 5.7268C10.3475 5.83874 10.4299 6.04665 10.4299 6.35051V7.24608C10.4299 7.56594 10.3475 7.7738 10.2158 7.88573C10.0839 7.99766 9.8203 8.04566 9.44135 8.04566Z" />
<path d="M14.4003 3.20012C15.2835 3.20012 16 2.48378 16 1.60012C16 0.716469 15.2835 0.00012207 14.4003 0.00012207C13.5165 0.00012207 12.8 0.716469 12.8 1.60012C12.8 2.48378 13.5165 3.20012 14.4003 3.20012Z"/>
</svg>
