<svg width="18" height="19" viewBox="0 0 18 19" xmlns="http://www.w3.org/2000/svg">
<path d="M2.33335 5.11922V15.8059L6.55419 13.9976L11.5542 16.4976L15.6667 14.7334V4.04755L16.7525 3.58255C16.8159 3.55537 16.8851 3.54436 16.9538 3.5505C17.0225 3.55665 17.0886 3.57976 17.1462 3.61776C17.2038 3.65576 17.251 3.70746 17.2837 3.76822C17.3163 3.82898 17.3334 3.8969 17.3334 3.96589V15.8334L11.5 18.3334L6.50002 15.8334L1.24752 18.0842C1.18412 18.1114 1.11495 18.1224 1.04624 18.1163C0.97753 18.1101 0.91142 18.087 0.853843 18.049C0.796266 18.011 0.749025 17.9593 0.71636 17.8986C0.683694 17.8378 0.666626 17.7699 0.666687 17.7009V5.83339L2.33335 5.11922ZM12.5359 9.36922L9.00002 12.9042L5.46419 9.36922C4.76501 8.66992 4.28889 7.77901 4.09603 6.80912C3.90317 5.83924 4.00224 4.83395 4.3807 3.92037C4.75917 3.00679 5.40003 2.22595 6.22226 1.67658C7.04448 1.12721 8.01115 0.833984 9.00002 0.833984C9.98889 0.833984 10.9556 1.12721 11.7778 1.67658C12.6 2.22595 13.2409 3.00679 13.6193 3.92037C13.9978 4.83395 14.0969 5.83924 13.904 6.80912C13.7112 7.77901 13.235 8.66992 12.5359 9.36922ZM9.00002 10.5476L11.3567 8.19005C11.823 7.72392 12.1405 7.12998 12.2692 6.48335C12.3979 5.83671 12.332 5.16644 12.0797 4.55729C11.8275 3.94815 11.4002 3.42749 10.852 3.06118C10.3038 2.69486 9.65934 2.49934 9.00002 2.49934C8.34071 2.49934 7.6962 2.69486 7.14802 3.06118C6.59983 3.42749 6.17259 3.94815 5.92033 4.55729C5.66806 5.16644 5.60211 5.83671 5.73081 6.48335C5.85951 7.12998 6.17708 7.72392 6.64335 8.19005L9.00002 10.5476Z"/>
</svg>
